<mxfile host="app.diagrams.net" modified="2021-12-09T08:06:45.108Z" agent="5.0 (Windows NT 10.0; Win64; x64) AppleWebKit/537.36 (KHTML, like Gecko) Chrome/96.0.4664.93 Safari/537.36" etag="XNuLbQhpTHnPCjMDZoD3" version="15.8.8" type="github">
  <diagram id="g9rVfQRId_UXP_9nCWD6" name="Page-1">
    <mxGraphModel dx="782" dy="1605" grid="1" gridSize="10" guides="1" tooltips="1" connect="1" arrows="1" fold="1" page="1" pageScale="1" pageWidth="827" pageHeight="1169" math="0" shadow="0">
      <root>
        <mxCell id="0" />
        <mxCell id="1" parent="0" />
        <mxCell id="2hSiSO6r-g4GhnsCLej8-1" value="tests&amp;nbsp;&lt;br&gt;(test function inside)" style="rounded=1;whiteSpace=wrap;html=1;" vertex="1" parent="1">
          <mxGeometry x="220" y="220" width="120" height="60" as="geometry" />
        </mxCell>
        <mxCell id="2hSiSO6r-g4GhnsCLej8-2" value="src" style="rounded=1;whiteSpace=wrap;html=1;" vertex="1" parent="1">
          <mxGeometry x="220" y="130" width="120" height="60" as="geometry" />
        </mxCell>
        <mxCell id="2hSiSO6r-g4GhnsCLej8-3" value="Use velodyne" style="rounded=1;whiteSpace=wrap;html=1;fillColor=#ffe6cc;strokeColor=#d79b00;" vertex="1" parent="1">
          <mxGeometry x="220" y="-20" width="120" height="60" as="geometry" />
        </mxCell>
        <mxCell id="2hSiSO6r-g4GhnsCLej8-4" value="doc :&amp;nbsp;https://docs.rs/lidar-utils/latest/lidar_utils/" style="rounded=1;whiteSpace=wrap;html=1;fillColor=#ffe6cc;strokeColor=#d79b00;" vertex="1" parent="1">
          <mxGeometry x="370" y="-20" width="330" height="60" as="geometry" />
        </mxCell>
      </root>
    </mxGraphModel>
  </diagram>
</mxfile>
